<svg width="32" height="32" viewBox="0 0 32 32" fill="none" xmlns="http://www.w3.org/2000/svg">
<path fill-rule="evenodd" clip-rule="evenodd" d="M14.8571 16V19.4286H17.1429V16H14.8571ZM23.0103 17.5723L21.296 20.5415L23.2755 21.6844L24.9898 18.7151L23.0103 17.5723ZM24 32.0001C24 32 24 32 24 32C24 27.5817 20.4183 24 16 24C11.5817 24 8 27.5817 8 32C8 32 8 32 8 32.0001H5.71429C5.71429 32 5.71429 32 5.71429 32C5.71429 26.3194 10.3194 21.7143 16 21.7143C21.6806 21.7143 26.2857 26.3194 26.2857 32C26.2857 32 26.2857 32 26.2857 32.0001H24ZM32 32.0001H28.5714V30.8571H32V32.0001ZM3.42857 32.0001H0V30.8571H3.42857V32.0001ZM26.3157 24.7245L29.2849 23.0103L30.4278 24.9897L27.4586 26.704L26.3157 24.7245ZM8.72454 21.6844L7.01026 18.7151L8.98974 17.5723L10.704 20.5415L8.72454 21.6844ZM1.5722 24.9897L4.54143 26.704L5.68428 24.7245L2.71505 23.0103L1.5722 24.9897Z" fill="url(#paint0_linear_213_1460)"/>
<path d="M16 13L18.8868 8H13.1132L16 13ZM15.5 0L15.5 8.5H16.5L16.5 0L15.5 0Z" fill="url(#paint1_linear_213_1460)"/>
<line y1="31.5" x2="32" y2="31.5" stroke="url(#paint2_linear_213_1460)"/>
<path fill-rule="evenodd" clip-rule="evenodd" d="M14.8571 16V19.4286H17.1429V16H14.8571ZM23.0103 17.5723L21.296 20.5415L23.2755 21.6844L24.9898 18.7151L23.0103 17.5723ZM24 32.0001C24 32 24 32 24 32C24 27.5817 20.4183 24 16 24C11.5817 24 8 27.5817 8 32C8 32 8 32 8 32.0001H5.71429C5.71429 32 5.71429 32 5.71429 32C5.71429 26.3194 10.3194 21.7143 16 21.7143C21.6806 21.7143 26.2857 26.3194 26.2857 32C26.2857 32 26.2857 32 26.2857 32.0001H24ZM32 32.0001H28.5714V30.8571H32V32.0001ZM3.42857 32.0001H0V30.8571H3.42857V32.0001ZM26.3157 24.7245L29.2849 23.0103L30.4278 24.9897L27.4586 26.704L26.3157 24.7245ZM8.72454 21.6844L7.01026 18.7151L8.98974 17.5723L10.704 20.5415L8.72454 21.6844ZM1.5722 24.9897L4.54143 26.704L5.68428 24.7245L2.71505 23.0103L1.5722 24.9897Z" fill="url(#paint3_linear_213_1460)"/>
<path d="M16 13L18.8868 8H13.1132L16 13ZM15.5 0L15.5 8.5H16.5L16.5 0L15.5 0Z" fill="url(#paint4_linear_213_1460)"/>
<line y1="31.5" x2="32" y2="31.5" stroke="url(#paint5_linear_213_1460)"/>
<defs>
<linearGradient id="paint0_linear_213_1460" x1="16" y1="16" x2="16" y2="32" gradientUnits="userSpaceOnUse">
<stop stop-color="#EFC977"/>
<stop offset="1" stop-color="#E07256"/>
</linearGradient>
<linearGradient id="paint1_linear_213_1460" x1="16" y1="6.5" x2="15" y2="6.5" gradientUnits="userSpaceOnUse">
<stop stop-color="#B2D4F7"/>
<stop offset="1" stop-color="#D9E2F3"/>
</linearGradient>
<linearGradient id="paint2_linear_213_1460" x1="16" y1="32" x2="16" y2="33" gradientUnits="userSpaceOnUse">
<stop stop-color="#B2D4F7"/>
<stop offset="1" stop-color="#D9E2F3"/>
</linearGradient>
<linearGradient id="paint3_linear_213_1460" x1="16" y1="16" x2="16" y2="32" gradientUnits="userSpaceOnUse">
<stop stop-color="#EFC977"/>
<stop offset="1" stop-color="#E07256"/>
</linearGradient>
<linearGradient id="paint4_linear_213_1460" x1="16" y1="6.5" x2="15" y2="6.5" gradientUnits="userSpaceOnUse">
<stop stop-color="#B2D4F7"/>
<stop offset="1" stop-color="#D9E2F3"/>
</linearGradient>
<linearGradient id="paint5_linear_213_1460" x1="16" y1="32" x2="16" y2="33" gradientUnits="userSpaceOnUse">
<stop stop-color="#B2D4F7"/>
<stop offset="1" stop-color="#D9E2F3"/>
</linearGradient>
</defs>
</svg>
